<mxfile host="Electron" modified="2023-12-26T02:22:35.752Z" agent="Mozilla/5.0 (Windows NT 10.0; Win64; x64) AppleWebKit/537.36 (KHTML, like Gecko) draw.io/22.1.11 Chrome/114.0.5735.289 Electron/25.9.8 Safari/537.36" etag="qa8WDvKV9LKKzqbG_FiR" version="22.1.11" type="device">
  <diagram name="第 1 页" id="00w_qqp3n3PQAT6tJhwv">
    <mxGraphModel dx="1434" dy="844" grid="1" gridSize="10" guides="1" tooltips="1" connect="1" arrows="1" fold="1" page="1" pageScale="1" pageWidth="827" pageHeight="1169" math="0" shadow="0">
      <root>
        <mxCell id="0" />
        <mxCell id="1" parent="0" />
        <mxCell id="uZ006N3MNcIg75ENwZan-1" value="GameLoop" style="shape=umlLifeline;perimeter=lifelinePerimeter;whiteSpace=wrap;html=1;container=1;dropTarget=0;collapsible=0;recursiveResize=0;outlineConnect=0;portConstraint=eastwest;newEdgeStyle={&quot;curved&quot;:0,&quot;rounded&quot;:0};" vertex="1" parent="1">
          <mxGeometry y="120" width="100" height="640" as="geometry" />
        </mxCell>
        <mxCell id="uZ006N3MNcIg75ENwZan-2" value="PBaseDefenseGame" style="shape=umlLifeline;perimeter=lifelinePerimeter;whiteSpace=wrap;html=1;container=1;dropTarget=0;collapsible=0;recursiveResize=0;outlineConnect=0;portConstraint=eastwest;newEdgeStyle={&quot;curved&quot;:0,&quot;rounded&quot;:0};" vertex="1" parent="1">
          <mxGeometry x="120" y="120" width="160" height="640" as="geometry" />
        </mxCell>
        <mxCell id="uZ006N3MNcIg75ENwZan-14" value="" style="html=1;points=[[0,0,0,0,5],[0,1,0,0,-5],[1,0,0,0,5],[1,1,0,0,-5]];perimeter=orthogonalPerimeter;outlineConnect=0;targetShapes=umlLifeline;portConstraint=eastwest;newEdgeStyle={&quot;curved&quot;:0,&quot;rounded&quot;:0};" vertex="1" parent="uZ006N3MNcIg75ENwZan-2">
          <mxGeometry x="75" y="230" width="10" height="100" as="geometry" />
        </mxCell>
        <mxCell id="uZ006N3MNcIg75ENwZan-16" value="" style="html=1;points=[[0,0,0,0,5],[0,1,0,0,-5],[1,0,0,0,5],[1,1,0,0,-5]];perimeter=orthogonalPerimeter;outlineConnect=0;targetShapes=umlLifeline;portConstraint=eastwest;newEdgeStyle={&quot;curved&quot;:0,&quot;rounded&quot;:0};" vertex="1" parent="uZ006N3MNcIg75ENwZan-2">
          <mxGeometry x="80" y="270" width="10" height="40" as="geometry" />
        </mxCell>
        <mxCell id="uZ006N3MNcIg75ENwZan-17" value="5: InputProcess" style="html=1;align=left;spacingLeft=2;endArrow=block;rounded=0;edgeStyle=orthogonalEdgeStyle;curved=0;rounded=0;" edge="1" target="uZ006N3MNcIg75ENwZan-16" parent="uZ006N3MNcIg75ENwZan-2">
          <mxGeometry relative="1" as="geometry">
            <mxPoint x="85" y="250" as="sourcePoint" />
            <Array as="points">
              <mxPoint x="115" y="280" />
            </Array>
          </mxGeometry>
        </mxCell>
        <mxCell id="uZ006N3MNcIg75ENwZan-20" value="" style="html=1;points=[[0,0,0,0,5],[0,1,0,0,-5],[1,0,0,0,5],[1,1,0,0,-5]];perimeter=orthogonalPerimeter;outlineConnect=0;targetShapes=umlLifeline;portConstraint=eastwest;newEdgeStyle={&quot;curved&quot;:0,&quot;rounded&quot;:0};" vertex="1" parent="uZ006N3MNcIg75ENwZan-2">
          <mxGeometry x="75" y="360" width="10" height="80" as="geometry" />
        </mxCell>
        <mxCell id="uZ006N3MNcIg75ENwZan-4" value="CampSystem" style="shape=umlLifeline;perimeter=lifelinePerimeter;whiteSpace=wrap;html=1;container=1;dropTarget=0;collapsible=0;recursiveResize=0;outlineConnect=0;portConstraint=eastwest;newEdgeStyle={&quot;curved&quot;:0,&quot;rounded&quot;:0};" vertex="1" parent="1">
          <mxGeometry x="300" y="120" width="100" height="640" as="geometry" />
        </mxCell>
        <mxCell id="uZ006N3MNcIg75ENwZan-8" value="" style="html=1;points=[[0,0,0,0,5],[0,1,0,0,-5],[1,0,0,0,5],[1,1,0,0,-5]];perimeter=orthogonalPerimeter;outlineConnect=0;targetShapes=umlLifeline;portConstraint=eastwest;newEdgeStyle={&quot;curved&quot;:0,&quot;rounded&quot;:0};" vertex="1" parent="uZ006N3MNcIg75ENwZan-4">
          <mxGeometry x="45" y="90" width="10" height="80" as="geometry" />
        </mxCell>
        <mxCell id="uZ006N3MNcIg75ENwZan-5" value="SoldierCamp" style="shape=umlLifeline;perimeter=lifelinePerimeter;whiteSpace=wrap;html=1;container=1;dropTarget=0;collapsible=0;recursiveResize=0;outlineConnect=0;portConstraint=eastwest;newEdgeStyle={&quot;curved&quot;:0,&quot;rounded&quot;:0};" vertex="1" parent="1">
          <mxGeometry x="420" y="120" width="100" height="640" as="geometry" />
        </mxCell>
        <mxCell id="uZ006N3MNcIg75ENwZan-10" value="" style="html=1;points=[[0,0,0,0,5],[0,1,0,0,-5],[1,0,0,0,5],[1,1,0,0,-5]];perimeter=orthogonalPerimeter;outlineConnect=0;targetShapes=umlLifeline;portConstraint=eastwest;newEdgeStyle={&quot;curved&quot;:0,&quot;rounded&quot;:0};" vertex="1" parent="uZ006N3MNcIg75ENwZan-5">
          <mxGeometry x="45" y="110" width="10" height="80" as="geometry" />
        </mxCell>
        <mxCell id="uZ006N3MNcIg75ENwZan-24" value="" style="html=1;points=[[0,0,0,0,5],[0,1,0,0,-5],[1,0,0,0,5],[1,1,0,0,-5]];perimeter=orthogonalPerimeter;outlineConnect=0;targetShapes=umlLifeline;portConstraint=eastwest;newEdgeStyle={&quot;curved&quot;:0,&quot;rounded&quot;:0};" vertex="1" parent="uZ006N3MNcIg75ENwZan-5">
          <mxGeometry x="45" y="470" width="10" height="80" as="geometry" />
        </mxCell>
        <mxCell id="uZ006N3MNcIg75ENwZan-6" value="CampOnClick" style="shape=umlLifeline;perimeter=lifelinePerimeter;whiteSpace=wrap;html=1;container=1;dropTarget=0;collapsible=0;recursiveResize=0;outlineConnect=0;portConstraint=eastwest;newEdgeStyle={&quot;curved&quot;:0,&quot;rounded&quot;:0};" vertex="1" parent="1">
          <mxGeometry x="550" y="120" width="100" height="640" as="geometry" />
        </mxCell>
        <mxCell id="uZ006N3MNcIg75ENwZan-12" value="" style="html=1;points=[[0,0,0,0,5],[0,1,0,0,-5],[1,0,0,0,5],[1,1,0,0,-5]];perimeter=orthogonalPerimeter;outlineConnect=0;targetShapes=umlLifeline;portConstraint=eastwest;newEdgeStyle={&quot;curved&quot;:0,&quot;rounded&quot;:0};" vertex="1" parent="uZ006N3MNcIg75ENwZan-6">
          <mxGeometry x="45" y="130" width="10" height="80" as="geometry" />
        </mxCell>
        <mxCell id="uZ006N3MNcIg75ENwZan-18" value="" style="html=1;points=[[0,0,0,0,5],[0,1,0,0,-5],[1,0,0,0,5],[1,1,0,0,-5]];perimeter=orthogonalPerimeter;outlineConnect=0;targetShapes=umlLifeline;portConstraint=eastwest;newEdgeStyle={&quot;curved&quot;:0,&quot;rounded&quot;:0};" vertex="1" parent="uZ006N3MNcIg75ENwZan-6">
          <mxGeometry x="45" y="290" width="10" height="90" as="geometry" />
        </mxCell>
        <mxCell id="uZ006N3MNcIg75ENwZan-7" value="CampInfoUI" style="shape=umlLifeline;perimeter=lifelinePerimeter;whiteSpace=wrap;html=1;container=1;dropTarget=0;collapsible=0;recursiveResize=0;outlineConnect=0;portConstraint=eastwest;newEdgeStyle={&quot;curved&quot;:0,&quot;rounded&quot;:0};" vertex="1" parent="1">
          <mxGeometry x="680" y="120" width="100" height="640" as="geometry" />
        </mxCell>
        <mxCell id="uZ006N3MNcIg75ENwZan-23" value="" style="html=1;points=[[0,0,0,0,5],[0,1,0,0,-5],[1,0,0,0,5],[1,1,0,0,-5]];perimeter=orthogonalPerimeter;outlineConnect=0;targetShapes=umlLifeline;portConstraint=eastwest;newEdgeStyle={&quot;curved&quot;:0,&quot;rounded&quot;:0};" vertex="1" parent="uZ006N3MNcIg75ENwZan-7">
          <mxGeometry x="45" y="430" width="10" height="170" as="geometry" />
        </mxCell>
        <mxCell id="uZ006N3MNcIg75ENwZan-28" value="" style="html=1;points=[[0,0,0,0,5],[0,1,0,0,-5],[1,0,0,0,5],[1,1,0,0,-5]];perimeter=orthogonalPerimeter;outlineConnect=0;targetShapes=umlLifeline;portConstraint=eastwest;newEdgeStyle={&quot;curved&quot;:0,&quot;rounded&quot;:0};" vertex="1" parent="uZ006N3MNcIg75ENwZan-7">
          <mxGeometry x="50" y="540" width="10" height="40" as="geometry" />
        </mxCell>
        <mxCell id="uZ006N3MNcIg75ENwZan-9" value="1: Initialize" style="html=1;verticalAlign=bottom;startArrow=none;endArrow=block;startSize=8;curved=0;rounded=0;entryX=0;entryY=0;entryDx=0;entryDy=5;startFill=0;" edge="1" target="uZ006N3MNcIg75ENwZan-8" parent="1" source="uZ006N3MNcIg75ENwZan-2">
          <mxGeometry relative="1" as="geometry">
            <mxPoint x="275" y="215" as="sourcePoint" />
          </mxGeometry>
        </mxCell>
        <mxCell id="uZ006N3MNcIg75ENwZan-11" value="2: AddCamp" style="html=1;verticalAlign=bottom;startArrow=none;endArrow=block;startSize=8;curved=0;rounded=0;entryX=0;entryY=0;entryDx=0;entryDy=5;startFill=0;" edge="1" target="uZ006N3MNcIg75ENwZan-10" parent="1" source="uZ006N3MNcIg75ENwZan-8">
          <mxGeometry relative="1" as="geometry">
            <mxPoint x="395" y="235" as="sourcePoint" />
          </mxGeometry>
        </mxCell>
        <mxCell id="uZ006N3MNcIg75ENwZan-13" value="3: AddComponent" style="html=1;verticalAlign=bottom;startArrow=none;endArrow=block;startSize=8;curved=0;rounded=0;entryX=0;entryY=0;entryDx=0;entryDy=5;startFill=0;" edge="1" target="uZ006N3MNcIg75ENwZan-12" parent="1" source="uZ006N3MNcIg75ENwZan-10">
          <mxGeometry relative="1" as="geometry">
            <mxPoint x="525" y="255" as="sourcePoint" />
          </mxGeometry>
        </mxCell>
        <mxCell id="uZ006N3MNcIg75ENwZan-15" value="4: Update" style="html=1;verticalAlign=bottom;startArrow=none;endArrow=block;startSize=8;curved=0;rounded=0;entryX=0;entryY=0;entryDx=0;entryDy=5;startFill=0;" edge="1" target="uZ006N3MNcIg75ENwZan-14" parent="1" source="uZ006N3MNcIg75ENwZan-1">
          <mxGeometry relative="1" as="geometry">
            <mxPoint x="125" y="355" as="sourcePoint" />
          </mxGeometry>
        </mxCell>
        <mxCell id="uZ006N3MNcIg75ENwZan-19" value="6: OnClick" style="html=1;verticalAlign=bottom;startArrow=none;endArrow=block;startSize=8;curved=0;rounded=0;entryX=0;entryY=0;entryDx=0;entryDy=5;startFill=0;" edge="1" target="uZ006N3MNcIg75ENwZan-18" parent="1" source="uZ006N3MNcIg75ENwZan-16">
          <mxGeometry relative="1" as="geometry">
            <mxPoint x="525" y="415" as="sourcePoint" />
          </mxGeometry>
        </mxCell>
        <mxCell id="uZ006N3MNcIg75ENwZan-21" value="7: ShowCampInfo" style="html=1;verticalAlign=bottom;endArrow=block;curved=0;rounded=0;entryX=1;entryY=0;entryDx=0;entryDy=5;" edge="1" target="uZ006N3MNcIg75ENwZan-20" parent="1" source="uZ006N3MNcIg75ENwZan-18">
          <mxGeometry relative="1" as="geometry">
            <mxPoint x="275" y="485" as="sourcePoint" />
          </mxGeometry>
        </mxCell>
        <mxCell id="uZ006N3MNcIg75ENwZan-22" value="8: ShowInfo" style="html=1;verticalAlign=bottom;endArrow=open;endSize=8;curved=0;rounded=0;exitX=1;exitY=1;exitDx=0;exitDy=-5;entryX=0;entryY=0;entryDx=0;entryDy=5;entryPerimeter=0;" edge="1" source="uZ006N3MNcIg75ENwZan-20" parent="1" target="uZ006N3MNcIg75ENwZan-23">
          <mxGeometry relative="1" as="geometry">
            <mxPoint x="275" y="555" as="targetPoint" />
          </mxGeometry>
        </mxCell>
        <mxCell id="uZ006N3MNcIg75ENwZan-25" value="9: GetCampInfo" style="html=1;verticalAlign=bottom;endArrow=block;curved=0;rounded=0;entryX=1;entryY=0;entryDx=0;entryDy=5;" edge="1" target="uZ006N3MNcIg75ENwZan-24" parent="1" source="uZ006N3MNcIg75ENwZan-23">
          <mxGeometry relative="1" as="geometry">
            <mxPoint x="545" y="595" as="sourcePoint" />
            <mxPoint as="offset" />
          </mxGeometry>
        </mxCell>
        <mxCell id="uZ006N3MNcIg75ENwZan-26" value="10: ReturnValue" style="html=1;verticalAlign=bottom;endArrow=open;endSize=8;curved=0;rounded=0;exitX=1;exitY=1;exitDx=0;exitDy=-5;entryX=0;entryY=0;entryDx=0;entryDy=5;entryPerimeter=0;" edge="1" source="uZ006N3MNcIg75ENwZan-24" parent="1" target="uZ006N3MNcIg75ENwZan-28">
          <mxGeometry relative="1" as="geometry">
            <mxPoint x="660" y="665" as="targetPoint" />
          </mxGeometry>
        </mxCell>
      </root>
    </mxGraphModel>
  </diagram>
</mxfile>
